<?xml version="1.0" standalone="no"?>
<!DOCTYPE svg PUBLIC "-//W3C//DTD SVG 20010904//EN"
 "http://www.w3.org/TR/2001/REC-SVG-20010904/DTD/svg10.dtd">
<svg version="1.0" xmlns="http://www.w3.org/2000/svg"
 width="1280.000000pt" height="720.000000pt" viewBox="0 0 1280.000000 720.000000"
 preserveAspectRatio="xMidYMid meet">
<metadata>
Created by potrace 1.15, written by Peter Selinger 2001-2017
</metadata>
<g transform="translate(0.000000,720.000000) scale(0.100000,-0.100000)"
fill="#000000" stroke="none">
<path d="M4490 7190 c-15 -10 -182 -63 -233 -74 -15 -4 -25 -10 -23 -15 3 -5
-13 -9 -36 -9 -22 -1 -46 -6 -51 -11 -6 -6 -24 -11 -39 -11 -15 0 -37 -9 -48
-20 -11 -11 -26 -17 -35 -13 -15 5 -138 -40 -159 -59 -14 -12 -28 -10 -20 3 3
6 -5 4 -18 -5 -14 -9 -28 -13 -31 -10 -4 4 -13 2 -20 -4 -7 -6 -40 -14 -73
-18 -32 -3 -66 -10 -74 -14 -8 -4 -44 -15 -80 -24 -100 -25 -200 -58 -200 -66
0 -4 -18 -10 -40 -14 -22 -3 -40 -10 -40 -15 0 -4 -26 -11 -57 -14 -32 -4 -96
-18 -143 -32 -47 -15 -107 -33 -135 -40 -27 -8 -59 -19 -70 -24 -11 -5 -37
-12 -58 -16 -24 -4 -35 -10 -31 -17 5 -7 2 -8 -5 -4 -7 5 -20 1 -29 -7 -11
-10 -35 -15 -64 -15 -26 1 -53 -4 -60 -9 -7 -6 -33 -14 -57 -18 -26 -4 -39
-10 -31 -15 9 -5 8 -9 -3 -13 -7 -3 -19 -2 -26 2 -7 5 -30 2 -51 -5 -21 -7
-71 -22 -111 -33 -41 -11 -137 -38 -214 -61 -77 -22 -141 -40 -142 -40 -12 0
1 -19 20 -29 17 -9 18 -10 2 -6 -48 15 -75 17 -75 6 0 -6 6 -11 14 -11 8 0 18
-4 21 -10 4 -6 -10 -8 -37 -4 -37 5 -47 2 -70 -20 -49 -47 -63 -112 -63 -296
0 -91 6 -205 14 -255 41 -279 103 -594 237 -1202 29 -131 71 -325 84 -390 16
-75 110 -487 120 -525 6 -21 14 -55 20 -75 77 -304 141 -499 202 -613 39 -74
92 -140 112 -140 6 0 36 -18 68 -41 80 -56 134 -61 251 -24 l86 28 83 -55 c46
-30 128 -83 183 -118 108 -67 235 -153 355 -236 107 -76 229 -149 269 -163 47
-15 130 -14 181 4 23 8 171 78 328 156 158 78 325 160 372 182 47 22 154 73
238 113 85 41 155 74 157 74 1 0 55 25 119 55 64 30 118 55 121 55 2 0 48 20
101 45 53 25 98 45 101 45 2 0 37 16 76 35 56 27 80 46 109 85 37 50 38 52 23
86 -20 49 -93 139 -140 173 -22 16 -50 38 -63 49 l-22 20 92 15 c187 32 240
37 420 37 142 0 204 -5 278 -20 90 -19 160 -46 160 -62 0 -5 5 -8 10 -8 12 0
13 40 2 56 -22 34 -153 69 -308 83 -172 16 -497 -8 -681 -49 l-45 -11 -121 99
c-144 116 -243 187 -275 197 -13 4 -21 12 -19 18 8 27 472 216 592 242 187 40
235 109 235 330 -1 66 -5 165 -10 220 -14 156 -69 601 -90 730 -6 39 -15 102
-20 140 -4 39 -31 230 -60 425 -28 195 -55 382 -60 415 -13 94 -49 324 -61
390 -5 33 -14 83 -19 110 -33 197 -55 303 -76 378 -5 16 -36 17 -512 17 -305
0 -513 -4 -522 -10z m230 -94 c0 -2 -17 -15 -37 -27 -59 -36 -79 -53 -140
-121 -32 -35 -178 -116 -189 -105 -3 3 15 20 40 38 25 18 46 36 46 41 0 23 79
83 167 127 95 48 113 56 113 47z m513 -118 c27 -37 40 -71 67 -185 28 -118 97
-537 155 -938 9 -60 25 -168 36 -240 92 -617 131 -929 133 -1086 2 -162 1
-162 -231 -262 -98 -42 -190 -80 -206 -86 -15 -6 -46 -19 -70 -30 -97 -43
-256 -111 -261 -111 -3 0 -35 -13 -71 -30 -36 -17 -68 -30 -70 -30 -2 0 -82
-33 -177 -74 -95 -41 -211 -90 -258 -109 -47 -19 -141 -58 -210 -87 -69 -29
-163 -68 -210 -87 -47 -19 -110 -46 -140 -60 -30 -14 -75 -33 -100 -43 -25 -9
-110 -44 -190 -78 -561 -233 -533 -222 -570 -222 -22 0 -33 7 -43 28 -14 27
-52 191 -101 432 -14 69 -39 190 -56 270 -17 80 -51 244 -76 365 -24 121 -49
238 -54 260 -5 22 -23 108 -41 190 -17 83 -39 186 -49 230 -10 44 -37 166 -60
270 -22 105 -45 208 -50 230 -10 44 -46 215 -53 255 -3 14 -12 61 -21 105 -9
44 -16 106 -16 137 0 49 4 62 30 91 19 22 51 42 87 54 83 29 313 104 488 158
83 26 197 62 255 80 127 41 227 72 385 120 132 41 404 126 590 185 66 21 242
75 390 120 149 45 297 90 330 101 210 67 354 108 382 109 25 0 37 -7 56 -32z
m-1658 -242 c-54 -37 -110 -86 -116 -103 -12 -32 -194 -140 -221 -131 -5 2 11
17 36 33 24 17 60 50 78 73 24 32 62 60 138 102 117 65 161 78 85 26z m1470
-3606 c7 -11 -45 -45 -167 -110 -79 -41 -92 -52 -123 -104 -19 -32 -35 -71
-35 -87 0 -22 -10 -34 -47 -60 -27 -18 -58 -41 -70 -52 -28 -25 -30 -14 -4 19
19 25 17 72 -8 136 -6 16 -8 41 -5 57 5 24 14 31 55 45 27 8 64 26 82 39 44
32 210 107 239 107 13 0 30 5 38 10 19 12 37 13 45 0z"/>
<path d="M4214 5459 c-17 -5 -38 -16 -45 -26 -13 -15 -12 -15 18 0 70 37 158
12 197 -54 80 -135 -80 -331 -219 -267 -14 6 -25 15 -25 20 0 4 -7 8 -15 8
-21 0 -18 -20 6 -41 74 -64 219 -8 268 104 28 63 29 159 1 204 -34 57 -104 76
-186 52z"/>
<path d="M3490 5191 c0 -4 11 -68 25 -141 32 -170 28 -178 -59 -111 -87 66
-238 171 -247 171 -5 0 -9 -12 -9 -26 0 -40 62 -358 71 -368 6 -6 13 -6 20 1
8 8 8 24 0 60 -35 155 -47 234 -37 242 7 6 42 -13 99 -55 48 -35 91 -64 96
-64 5 0 11 -3 13 -8 6 -14 92 -72 106 -72 17 0 15 14 -18 185 -12 61 -24 129
-27 153 -4 26 -11 42 -19 42 -8 0 -14 -4 -14 -9z"/>
<path d="M2947 5014 c-4 -4 -57 -24 -119 -45 -131 -43 -124 -25 -83 -199 14
-58 31 -134 38 -170 7 -36 18 -63 23 -60 11 6 10 15 -6 94 -18 92 -15 96 97
131 69 22 99 36 101 48 5 24 -13 21 -108 -18 -47 -19 -91 -35 -98 -35 -16 0
-28 31 -37 97 l-7 52 58 27 c32 14 63 27 68 28 46 9 116 37 116 47 0 10 -33
12 -43 3z"/>
<path d="M6566 3403 c-4 -13 -12 -23 -17 -23 -5 0 -9 -5 -9 -11 0 -18 -67
-110 -129 -178 -79 -87 -212 -252 -230 -288 -27 -54 -27 -103 0 -156 30 -58
69 -107 85 -107 24 0 15 44 -16 80 -17 19 -34 47 -37 63 -3 15 -9 30 -14 33
-4 2 10 38 31 80 40 75 100 153 194 254 116 124 162 199 154 252 l-4 23 -8
-22z"/>
<path d="M7336 2996 c-54 -29 -60 -36 -82 -91 -31 -82 -94 -359 -94 -416 0
-64 18 -109 47 -120 38 -14 71 -11 77 9 42 140 119 558 114 616 l-3 32 -59
-30z"/>
<path d="M9395 2689 c-113 -64 -264 -106 -447 -124 -86 -9 -181 -13 -210 -10
-151 18 -316 56 -512 120 -141 46 -180 53 -191 35 -4 -6 -20 -124 -35 -263
-28 -246 -36 -301 -61 -460 -12 -71 -11 -81 6 -109 54 -92 91 -112 355 -188
411 -119 424 -121 614 -100 249 29 305 43 446 115 169 87 316 202 344 269 22
54 39 154 33 198 -6 51 -36 258 -43 307 -4 26 -25 55 -82 114 -42 43 -93 92
-112 107 l-36 28 -69 -39z"/>
</g>
</svg>
